<?xml version="1.0" encoding="utf-8"?>
<!-- Generator: Adobe Illustrator 26.0.1, SVG Export Plug-In . SVG Version: 6.00 Build 0)  -->
<svg version="1.1" id="Layer_1" xmlns="http://www.w3.org/2000/svg" xmlns:xlink="http://www.w3.org/1999/xlink" x="0px" y="0px"
	 viewBox="0 0 403 100" style="enable-background:new 0 0 403 100;" xml:space="preserve">
<style type="text/css">
	.st0{fill-rule:evenodd;clip-rule:evenodd;fill:#C5C6C6;}
	.st1{fill-rule:evenodd;clip-rule:evenodd;fill:#AF9778;}
	.st2{fill-rule:evenodd;clip-rule:evenodd;fill:#D9DADA;}
	.st3{fill-rule:evenodd;clip-rule:evenodd;fill:#0098B5;}
	.st4{fill:#FEFEFE;}
</style>
<path class="st0" d="M5.4,2.9c24.4-3.9,49-3.8,73.5,0l5.2,0.8v42.7c0,9.9-2.3,19-8.9,26.5c-7.7,8.7-20.1,13.3-30.5,18L42.2,92
	l-2.5-1.1c-10.4-4.6-22.7-9.3-30.5-18c-6.7-7.5-8.9-16.6-8.9-26.5V3.7C0.2,3.7,5.4,2.9,5.4,2.9z"/>
<g>
	<path class="st1" d="M367.9,13.3c1.9,0,2.6-0.7,2.6-2.3V8.1c0-1.6-0.7-2.3-2.6-2.3h-2.5c-1.9,0-2.6,0.7-2.6,2.3V11
		c0,1.6,0.7,2.3,2.6,2.3H367.9z M303.6,42c9.6,0,12.4-2.7,12.4-10.5v-6.6c0-6.9-3.4-10-12.1-10h-21.3l-2.2,5.3h23.5
		c3.3,0,4.6,0.9,4.6,4.4v0.6h-19.1c-7.5,0-9.4,2.6-9.4,7.2V35c0,4.4,2.1,7.2,9.9,7.2h13.7V42z M308.5,32c0,4.1-1.5,4.9-5,4.9h-13
		c-1.9,0-3.1-0.7-3.1-2.6v-1.9c0-2.2,1.1-2.8,2.8-2.8h18.3L308.5,32L308.5,32z M103.4,49h4.1h0.3v0.3v15c0,0.7,0,1.3,0.1,1.9
		c0,0.6,0.1,1.1,0.2,1.7c0.1,0.5,0.2,1,0.4,1.4l0,0c0.2,0.4,0.3,0.8,0.6,1.2c0.2,0.3,0.5,0.6,0.8,0.9s0.6,0.5,1,0.7s0.8,0.3,1.2,0.4
		c0.5,0.1,1,0.1,1.5,0.1c0.6,0,1.2-0.1,1.8-0.2c0.5-0.1,1-0.3,1.4-0.6c0.4-0.2,0.8-0.5,1.2-0.9c0.3-0.3,0.6-0.7,0.9-1.2l0,0
		c0.2-0.4,0.4-0.8,0.6-1.3c0.1-0.4,0.2-0.9,0.3-1.4c0-0.5,0.1-1,0.1-1.4c0-0.5,0-0.9,0-1.4V49.3V49h0.3h2h0.3v0.3V65
		c0,1-0.1,2.1-0.2,3.1c-0.1,0.5-0.2,1.1-0.4,1.6c-0.2,0.5-0.5,1-0.8,1.5l0,0c-0.4,0.5-0.8,1-1.3,1.5c-0.5,0.4-1.1,0.8-1.7,1.2
		c-0.6,0.3-1.4,0.6-2.2,0.8c-0.8,0.2-1.7,0.3-2.6,0.3c-1.7,0-3.1-0.2-4.4-0.6s-2.3-1-3.2-1.8c-0.9-0.8-1.5-1.8-1.9-3.1
		c-0.4-1.2-0.6-2.7-0.6-4.3V49.3V49C103.1,49,103.4,49,103.4,49z M152.1,63.3c0-0.8-0.1-1.4-0.2-1.9c-0.1-0.5-0.3-0.9-0.5-1.2
		s-0.5-0.5-0.8-0.6s-0.7-0.2-1.1-0.2c-0.3,0-0.6,0-1,0.1c-0.3,0.1-0.7,0.2-1.1,0.3c-0.4,0.1-0.8,0.3-1.2,0.5
		c-0.3,0.2-0.7,0.4-1.1,0.6v13.5v0.3h-0.3h-3.9h-0.3v-0.3V57.1v-0.3h0.3h3.7h0.3v0.3l0.1,1.1c0.3-0.2,0.6-0.3,0.9-0.4
		c0.5-0.2,0.9-0.4,1.5-0.6c0.5-0.2,1-0.3,1.5-0.4c0.5-0.1,1-0.1,1.6-0.1c0.8,0,1.5,0.1,2.2,0.4c0.4,0.1,0.7,0.3,1.1,0.5
		c0.3,0.2,0.7,0.5,1,0.8l0,0c0.3,0.3,0.6,0.7,0.8,1c0.2,0.4,0.4,0.8,0.6,1.2c0.1,0.4,0.2,0.8,0.3,1.3s0.1,1,0.1,1.5v11.1v0.3h-0.3
		h-3.9h-0.3v-0.3L152.1,63.3L152.1,63.3z M178.1,56.6c0.3,0,0.6,0,0.9,0.1c0.3,0.1,0.5,0.2,0.7,0.5l0,0c0.2,0.2,0.3,0.4,0.4,0.7
		c0.1,0.3,0.1,0.5,0.1,0.8v15.6v0.3H180h-3.8h-0.3v-0.3V59.5c0-0.1,0-0.2,0-0.3s-0.1-0.1-0.1-0.2c-0.1-0.1-0.1-0.1-0.2-0.1l0,0
		c-0.1,0-0.2,0-0.3,0h-0.6h-0.3v-0.3v-1.4v-0.3h0.3L178.1,56.6L178.1,56.6L178.1,56.6z M175.3,52.3c0-0.3,0.1-0.6,0.2-0.9
		c0.1-0.3,0.3-0.5,0.5-0.8c0.2-0.2,0.5-0.4,0.8-0.5s0.6-0.2,0.9-0.2c0.3,0,0.6,0.1,0.9,0.2c0.3,0.1,0.5,0.3,0.8,0.5
		c0.2,0.2,0.4,0.5,0.5,0.8s0.2,0.6,0.2,0.9c0,0.3-0.1,0.6-0.2,0.9c-0.1,0.3-0.3,0.5-0.5,0.8c-0.2,0.2-0.5,0.4-0.8,0.5
		s-0.6,0.2-0.9,0.2c-0.3,0-0.6-0.1-0.9-0.2c-0.3-0.1-0.5-0.3-0.8-0.5c-0.2-0.2-0.4-0.5-0.5-0.8S175.3,52.6,175.3,52.3z M211.9,57.2
		l-5,14.9c-0.1,0.2-0.1,0.4-0.2,0.5c-0.1,0.2-0.2,0.3-0.2,0.5c-0.1,0.2-0.2,0.3-0.3,0.5s-0.2,0.3-0.4,0.4c-0.1,0.1-0.3,0.3-0.5,0.4
		s-0.4,0.2-0.6,0.3c-0.2,0.1-0.4,0.1-0.7,0.2c-0.2,0-0.5,0.1-0.8,0.1s-0.6,0-0.9-0.1c-0.3,0-0.5-0.1-0.8-0.2
		c-0.2-0.1-0.4-0.2-0.6-0.3c-0.2-0.1-0.4-0.2-0.5-0.4l0,0c-0.2-0.1-0.3-0.3-0.4-0.4c-0.1-0.2-0.2-0.3-0.3-0.5s-0.2-0.3-0.2-0.5
		c-0.1-0.2-0.1-0.4-0.2-0.5l0,0l-4.9-14.9l-0.1-0.4h0.4h4.2h0.2l0.1,0.2l4.9,14.9l0,0c0,0,0,0,0.1,0h0.1l0,0l5-14.9l0.1-0.2h0.2h2.1
		h0.4L211.9,57.2L211.9,57.2z M231.7,58.8c-0.4,0-0.8,0.1-1.2,0.3s-0.7,0.5-1.1,0.9c-0.3,0.4-0.6,0.9-0.8,1.5
		c-0.2,0.5-0.3,1.1-0.4,1.7h6.6c0.1,0,0.2,0,0.2,0l0,0c0-0.2,0-0.5,0-0.7c0-0.3-0.1-0.5-0.1-0.8c-0.1-0.3-0.1-0.5-0.2-0.7
		c-0.1-0.2-0.2-0.5-0.3-0.7s-0.3-0.4-0.5-0.6c-0.2-0.2-0.4-0.3-0.6-0.5c-0.2-0.1-0.4-0.2-0.7-0.3C232.3,58.8,232,58.8,231.7,58.8z
		 M239.1,63.1c0,0.3,0,0.6-0.1,0.8c0,0.3-0.1,0.5-0.2,0.7c-0.1,0.3-0.3,0.5-0.6,0.6s-0.6,0.2-1,0.2l0,0h-9.1c0,1.1,0.2,2,0.4,2.8
		c0.3,0.9,0.7,1.6,1.2,2.2c1,1.2,2.3,1.8,3.9,1.8c0.3,0,0.7,0,1-0.1c0.4-0.1,0.7-0.1,1.1-0.3c0.4-0.1,0.7-0.3,1.1-0.4
		c0.4-0.2,0.7-0.4,1.1-0.6l0.5-0.3v0.6v2.3v0.2l-0.2,0.1c-1,0.4-1.9,0.7-2.9,0.9c-1,0.2-1.9,0.3-2.9,0.3c-1.2,0-2.3-0.2-3.4-0.5
		c-0.5-0.2-1.1-0.4-1.5-0.7c-0.5-0.3-0.9-0.6-1.4-1c-0.4-0.4-0.8-0.8-1.1-1.3l0,0c-0.3-0.5-0.6-1-0.9-1.6c-0.2-0.6-0.4-1.3-0.6-2
		c-0.1-0.7-0.2-1.5-0.2-2.3c0-0.6,0-1.2,0.1-1.7c0.1-0.6,0.2-1.1,0.4-1.7c0.2-0.5,0.4-1.1,0.6-1.5c0.3-0.5,0.6-0.9,0.9-1.3
		c0.3-0.4,0.7-0.8,1.2-1.1l0,0c0.4-0.3,0.9-0.6,1.4-0.9c0.5-0.2,1.1-0.4,1.7-0.5c0.6-0.1,1.2-0.2,1.9-0.2c2,0,3.6,0.5,4.9,1.5
		c0.4,0.3,0.7,0.6,1,1s0.6,0.8,0.8,1.2l0,0c0.2,0.5,0.4,0.9,0.5,1.4C239,62.1,239,62.6,239.1,63.1L239.1,63.1L239.1,63.1z M259.1,59
		l0.1-0.2c0.2-0.3,0.5-0.5,0.8-0.7l0,0c0.5-0.4,1-0.7,1.6-1.1c0.3-0.2,0.6-0.3,1-0.4c0.3-0.1,0.7-0.1,1.1-0.1c0.2,0,0.5,0,0.7,0.1
		c0.2,0,0.5,0.1,0.7,0.2l0.2,0.1v0.2v2.6v0.5l-0.4-0.2c-0.2-0.1-0.5-0.2-0.7-0.2s-0.4-0.1-0.6-0.1c-0.3,0-0.7,0-1,0.1
		s-0.6,0.2-0.8,0.3c-0.3,0.1-0.5,0.3-0.8,0.4c-0.2,0.1-0.5,0.3-0.7,0.4c-0.2,0.2-0.5,0.4-0.7,0.6c-0.2,0.2-0.3,0.4-0.5,0.6v12.1v0.3
		h-0.3h-3.9h-0.3v-0.3V57.1v-0.3h0.3h3.8h0.3v0.3L259.1,59L259.1,59z M278.4,70.5c0.2,0.2,0.6,0.4,1,0.6c0.2,0.1,0.4,0.2,0.6,0.3
		c0.2,0.1,0.4,0.2,0.7,0.3c0.2,0.1,0.5,0.2,0.7,0.3c0.2,0.1,0.5,0.2,0.8,0.2c0.3,0.1,0.5,0.1,0.8,0.1s0.5,0,0.8,0
		c1,0,1.8-0.2,2.3-0.6l0,0c0.2-0.2,0.4-0.4,0.5-0.6s0.2-0.5,0.2-0.8s0-0.5-0.1-0.7s-0.2-0.4-0.3-0.6c-0.1-0.2-0.3-0.3-0.6-0.5
		c-0.3-0.2-0.6-0.3-1-0.5l0,0l-2.6-0.9c-0.6-0.2-1.1-0.5-1.6-0.8s-0.9-0.7-1.3-1.1s-0.7-1-0.9-1.6c-0.2-0.6-0.3-1.3-0.3-2
		c0-0.9,0.2-1.7,0.6-2.4l0,0c0.4-0.7,0.9-1.2,1.5-1.7c0.3-0.2,0.6-0.4,1-0.5c0.4-0.2,0.7-0.3,1.1-0.4c0.4-0.1,0.8-0.2,1.2-0.2
		c0.4-0.1,0.8-0.1,1.2-0.1c1.9,0,3.6,0.5,5.1,1.4l0.1,0.1V58v2.2V61l-0.5-0.4l-0.8-0.6l0,0c-0.1-0.1-0.3-0.2-0.5-0.3l0,0
		c-0.2-0.1-0.3-0.2-0.5-0.3s-0.4-0.2-0.6-0.2c-0.2-0.1-0.4-0.1-0.7-0.2c-0.2-0.1-0.5-0.1-0.7-0.1c-0.3,0-0.5,0-0.9,0
		c-1,0-1.7,0.2-2.1,0.6l0,0c-0.2,0.2-0.3,0.4-0.4,0.6c-0.1,0.2-0.1,0.5-0.1,0.7c0,0.4,0.1,0.9,0.4,1.3l0,0c0.3,0.4,0.7,0.7,1.4,0.9
		l2.7,0.9l0,0c0.7,0.2,1.4,0.5,1.9,0.9c0.6,0.4,1,0.8,1.4,1.2c0.4,0.5,0.6,1,0.8,1.6c0.2,0.6,0.3,1.2,0.3,1.8c0,0.5,0,0.9-0.1,1.4
		c-0.1,0.4-0.2,0.8-0.4,1.2c-0.4,0.7-0.9,1.3-1.5,1.7c-0.3,0.2-0.7,0.4-1,0.6l0,0c-0.4,0.2-0.8,0.3-1.2,0.4
		c-0.4,0.1-0.8,0.2-1.3,0.2c-0.4,0-0.9,0.1-1.3,0.1c-0.5,0-1,0-1.6-0.1c-0.5-0.1-1-0.2-1.5-0.3l0,0c-0.5-0.1-1-0.3-1.4-0.5
		s-0.9-0.4-1.3-0.6l-0.2-0.1v-0.2v-2.3v-0.7L278.4,70.5L278.4,70.5z M309.1,56.6c0.3,0,0.6,0,0.9,0.1s0.5,0.2,0.7,0.5
		c0.2,0.2,0.3,0.4,0.4,0.7s0.1,0.5,0.1,0.8v15.6v0.3H311h-3.8h-0.3v-0.3V59.5c0-0.2-0.1-0.4-0.2-0.5s-0.1-0.1-0.2-0.1l0,0
		c-0.1,0-0.2,0-0.3,0h-0.6h-0.3v-0.3v-1.4v-0.3h0.3L309.1,56.6L309.1,56.6L309.1,56.6z M306.3,52.3c0-0.7,0.2-1.2,0.7-1.7
		c0.2-0.2,0.5-0.4,0.8-0.5s0.6-0.2,0.9-0.2s0.6,0.1,0.9,0.2c0.3,0.1,0.5,0.3,0.8,0.5c0.2,0.2,0.4,0.5,0.5,0.8s0.2,0.6,0.2,0.9
		c0,0.3-0.1,0.6-0.2,0.9c-0.1,0.3-0.3,0.5-0.5,0.8c-0.2,0.2-0.5,0.4-0.8,0.5s-0.6,0.2-0.9,0.2s-0.6-0.1-0.9-0.2
		c-0.3-0.1-0.5-0.3-0.8-0.5c-0.2-0.2-0.4-0.5-0.5-0.8S306.3,52.6,306.3,52.3z M333.7,69.6c0,0.3,0,0.5,0,0.7s0,0.4,0.1,0.5
		c0,0.2,0.1,0.3,0.1,0.4s0.1,0.2,0.1,0.3l0,0c0.1,0.1,0.1,0.2,0.2,0.3c0.1,0.1,0.2,0.2,0.3,0.2c0.1,0.1,0.3,0.1,0.4,0.1s0.3,0,0.4,0
		l0,0c0.2,0,0.4,0,0.6-0.1c0.2,0,0.4-0.1,0.6-0.2s0.4-0.2,0.6-0.3l0,0c0.2-0.1,0.3-0.2,0.5-0.3c0.2-0.1,0.4-0.2,0.5-0.4
		c0.2-0.1,0.3-0.3,0.5-0.4l0.5-0.5v0.7v2.3v0.2l-0.1,0.1c-0.2,0.1-0.4,0.3-0.6,0.4l0,0c-0.2,0.1-0.4,0.2-0.7,0.4l0,0
		c-0.2,0.1-0.4,0.2-0.7,0.3l0,0c-0.2,0.1-0.5,0.2-0.8,0.2c-0.3,0.1-0.6,0.1-0.9,0.2c-0.3,0-0.6,0.1-1,0.1s-0.8,0-1.1-0.1
		c-0.4,0-0.7-0.1-1-0.2s-0.6-0.2-0.9-0.3c-0.3-0.1-0.5-0.3-0.8-0.5c-0.2-0.2-0.5-0.4-0.6-0.7c-0.2-0.3-0.3-0.5-0.4-0.9
		c-0.1-0.3-0.2-0.7-0.3-1.1c-0.1-0.4-0.1-0.8-0.1-1.3V59.2h-2.3h-0.3v-0.3v-1.7v-0.3h0.3l2.2-0.3l0.1-3.3v-0.2l0.2-0.1l3.8-1.1
		l0.4-0.1v0.4v4.6h4.7h0.3v0.3v1.8v0.3h-0.3h-4.7v10.4H333.7z M370.4,57.2l-5.1,13.6l0,0L361,81.7l-0.1,0.2h-0.2h-2.3h-0.5l0.2-0.5
		l3.6-8.1c-0.2,0-0.3,0-0.5,0c-0.3,0-0.6-0.1-0.8-0.2l0,0c-0.2-0.1-0.5-0.2-0.7-0.3c-0.2-0.1-0.4-0.2-0.6-0.3l0,0
		c-0.2-0.1-0.3-0.3-0.4-0.4s-0.2-0.3-0.3-0.5c-0.2-0.3-0.3-0.6-0.4-0.9l0,0l-5.1-13.5l-0.2-0.4h0.5h4.3h0.2l0.1,0.2l4.8,13.5l0,0
		l0,0c0,0,0,0,0.1,0h0.1c0,0,0,0,0-0.1l0,0l5-13.5l0.1-0.2h0.2h2.1h0.5L370.4,57.2L370.4,57.2z M157.2,42V10.2
		c0-2.2-1.8-3.1-4.1-3.1c-1.8,0-2.6,0.5-3.4,1.6l-19.5,25.6L110.9,8.7c-0.9-1.2-1.8-1.6-3.6-1.6c-2.4,0-4.1,1-4.1,3.1V42h6.9V19.5
		l16.7,21.8c0.8,1,1.9,1.5,3.4,1.5s2.6-0.5,3.4-1.5l16.7-21.8V42C150.2,42,157.2,42,157.2,42z M185.1,42c9.6,0,12.4-2.7,12.4-10.5
		v-6.6c0-6.9-3.4-10-12.1-10h-22.3v5.3h22.3c3.3,0,4.6,0.9,4.6,4.4v0.6h-19c-7.5,0-9.4,2.6-9.4,7.2V35c0,4.4,2.1,7.2,9.9,7.2
		C171.5,42,185.1,42,185.1,42z M190.1,32c0,4.1-1.5,4.9-5,4.9h-13c-1.9,0-3.1-0.7-3.1-2.6v-1.9c0-2.2,1.1-2.8,2.8-2.8h18.3V32z
		 M209.4,42V26.3c0-4.3,1.3-5.4,5.5-5.4h7.3l-2.6-6.1h-4.9c-9.2,0-12.7,3.3-12.7,11.4V42H209.4z M258.4,40.1
		c0.8,1.6,2.1,2.7,4.1,2.7s3.4-1.2,4.1-2.7L278,14.9h-7.4l-8.2,18.3L255,16.9c-0.9-1.9-2-2.8-4.1-2.8c-2.2,0-3.2,1-4.1,2.8L239,33.2
		l-7.8-18.3h-7.6l10.9,25.2c0.7,1.7,1.8,2.7,4,2.7c2,0,3.4-1.1,4.2-2.7l8.1-16.8L258.4,40.1z M342.8,42c10.1,0,13.1-3.1,13.1-11.7
		V6.1h-7.5v8.8h-14c-10.2,0-13.1,3.1-13.1,11.8v3.7c0,8.6,3,11.7,13.1,11.7h8.4V42z M328.7,26.9c0-4.9,1.3-5.6,6.6-5.6h13.1v8.9
		c0,4.5-1.1,5.6-5.8,5.6h-7.3c-5.3,0-6.6-0.9-6.6-5.6C328.7,30.1,328.7,26.9,328.7,26.9z M370.5,15.5h-7.6V42h7.6V15.5z M370.5,42
		V15.5V42z"/>
</g>
<path class="st2" d="M5.4,2.9c24.4-3.9,49-3.8,73.5,0l5.2,0.8v42.7c0,9.9-2.3,19-8.9,26.5c-7.7,8.7-20.1,13.3-30.5,18L42.2,92
	l-2.5-1.1c-10.4-4.6-22.7-9.3-30.5-18c-6.7-7.5-8.9-16.6-8.9-26.5V3.7C0.2,3.7,5.4,2.9,5.4,2.9z"/>
<path class="st3" d="M42.2,6.7C30.5,6.7,18.7,7.6,7,9.5v37c0,22.8,13.7,28.8,31.8,36.7c1.2,0.5,2.4,1.1,3.4,1.5c1-0.4,2.2-1,3.4-1.5
	c18.1-7.9,31.8-14,31.8-36.7v-37C65.7,7.7,53.9,6.7,42.2,6.7z"/>
<path class="st4" d="M6.3,8.5c11.9-1.9,23.9-2.8,35.8-2.8s23.9,1,35.8,2.8l0.4,0.1V9v37.4c0,23.5-14,29.6-32.5,37.7
	c-1.1,0.5-2.2,1-3.6,1.6L42,85.8l0-0.1c-1.4-0.6-2.5-1.1-3.6-1.6C19.9,76,5.9,69.9,5.9,46.4V9V8.6L6.3,8.5z M42.2,6.7
	C30.5,6.7,18.7,7.6,7,9.4v37c0,22.8,13.7,28.8,31.8,36.7c1.2,0.5,2.4,1.1,3.4,1.5c1-0.4,2.2-1,3.4-1.5c18.1-7.9,31.8-14,31.8-36.7
	v-37C65.7,7.7,53.9,6.7,42.2,6.7z M31.8,32.5l10.4,6.1l10.4-6.1c0.6-0.4,1.3,0.4,1.3,1.1v20.1l-3.3,1.9c-0.2,0.2-0.4,0.2-0.6,0
	c-0.4-0.3-0.9-0.6-0.9-1.1V39.9l-7,4.1l-7-4.1v14.6c0,0.6-0.5,0.9-0.9,1.1c-0.2,0.1-0.4,0.1-0.6,0l-3.3-1.9V33.6
	C30.5,32.9,31.1,32.1,31.8,32.5z M42.2,27.6l-20.6-12L19,17.2c-1.2,0.8-1,1.7-0.2,2.2L42.2,33l23.4-13.7c0.8-0.5,1-1.4-0.2-2.2
	l-2.6-1.6L42.2,27.6z M21.2,28l0.8-0.8l3.8,1.9v27.3L42.2,66l16.4-9.6V29.1l3.8-1.9l0.8,0.8v31.1l-19,11.2c-1.5,1-2.5,1-4,0
	l-19-11.2V28z"/>
</svg>
